<svg xmlns="http://www.w3.org/2000/svg" viewBox="0 0 512 512" fill="none">
  <path
    d="M508.538 246.117L392.499 48.5011C388.371 41.2426 380.527 36 371.854 36H139.78C131.524 36 123.676 41.2426 119.136 48.5011L3.09701 245.718C1.06993 249.281 0.00271223 253.311 0 257.412C0 261.503 1.06571 265.527 3.09701 269.106L119.136 465.112C123.264 472.37 131.108 476 139.78 476H372.267C380.527 476 388.371 472.37 392.915 465.515L508.954 269.509C513.082 261.446 513.082 252.972 508.538 246.117Z"
    fill="#324cc2"
  />
  <path
    d="M439.492 248.857L355.409 106.035C352.417 100.789 346.734 97 340.45 97H172.286C166.303 97 160.617 100.789 157.327 106.035L73.2438 248.569C71.7753 251.143 71.0019 254.056 71 257.021C71 259.978 71.7723 262.886 73.2438 265.472L157.327 407.132C160.318 412.378 166.002 415 172.286 415H340.748C346.734 415 352.417 412.378 355.71 407.422L439.793 265.763C442.784 259.936 442.784 253.812 439.492 248.857Z"
    fill="#fff"
  />
  <path
    d="M285.827 142.316C285.827 141.389 285.623 140.474 285.229 139.636C284.835 138.797 284.262 138.055 283.549 137.462C282.837 136.87 282.002 136.441 281.105 136.206C280.208 135.971 279.271 135.937 278.359 136.104C277.139 136.33 276.012 136.909 275.118 137.769L252.64 159.368C219.184 191.523 190.909 228.657 168.818 269.45C168.275 270.411 167.993 271.497 168 272.6C168.008 273.703 168.304 274.786 168.86 275.739C169.417 276.692 170.213 277.483 171.171 278.033C172.128 278.583 173.213 278.872 174.318 278.873H228.808V369.679C228.808 370.904 229.163 372.102 229.832 373.129C230.501 374.155 231.454 374.965 232.575 375.461C233.696 375.956 234.937 376.115 236.147 375.918C237.357 375.721 238.484 375.178 239.39 374.353L249.441 365.194C284.648 333.153 314.526 295.717 337.954 254.292L344.174 243.303C344.721 242.342 345.006 241.254 345 240.149C344.994 239.044 344.698 237.959 344.141 237.004C343.584 236.049 342.786 235.257 341.827 234.706C340.868 234.156 339.78 233.866 338.674 233.867H285.827V142.316Z"
    fill="#ffa500"
  />
</svg>
